<svg xmlns="http://www.w3.org/2000/svg" xmlns:xlink="http://www.w3.org/1999/xlink" fill="none" version="1.1" width="19.3603515625" height="14" viewBox="0 0 19.3603515625 14"><defs><linearGradient x1="0.6711602210998535" y1="0" x2="0.37385539492350295" y2="0.9609735351564639" id="master_svg0_3_03457"><stop offset="0%" stop-color="#FFB19C" stop-opacity="1"/><stop offset="100%" stop-color="#FF5E5E" stop-opacity="1"/></linearGradient></defs><g><rect x="0" y="0" width="19.360000610351562" height="14" rx="4" fill="#FFF3F0" fill-opacity="1"/><g><g><path d="M5.106012194366455,4.72250732421875C5.106012194366455,5.98036732421875,6.146472194366455,7.00000732421875,7.430062194366455,7.00000732421875C8.713642194366455,7.00000732421875,9.754712194366455,5.98036732421875,9.754712194366455,4.72250732421875C9.754712194366455,3.46464732421875,8.714252194366455,2.44500732421875,7.430062194366455,2.44500732421875C6.146472194366455,2.44500732421875,5.106012194366455,3.46464732421875,5.106012194366455,4.72250732421875ZM10.498162194366454,5.88299732421875C10.498162194366454,6.92712732421875,11.362252194366455,7.77346732421875,12.427212194366454,7.77346732421875C13.492782194366455,7.77346732421875,14.356242194366455,6.92712732421875,14.356242194366455,5.88299732421875C14.356242194366455,4.83886732421875,13.493392194366455,3.99252732421875,12.427212194366454,3.99252732421875C11.362252194366455,3.99252732421875,10.498162194366454,4.83886732421875,10.498162194366454,5.88299732421875ZM3.556042194366455,10.70071732421875L3.556042194366455,10.89055732421875C3.556042194366455,11.55500732421875,4.900252194366455,11.55500732421875,6.558622194366455,11.55500732421875L8.411112194366456,11.55500732421875C8.335732194366456,11.38095732421875,8.298162194366455,11.19288732421875,8.300882194366455,11.00323732421875L8.300882194366455,10.84585732421875C8.300882194366455,9.684747324218751,8.905932194366455,8.66449732421875,9.818402194366456,8.063127324218751C9.406202194366454,7.86353732421875,8.954222194366455,7.75969732421875,8.496242194366456,7.75937732421875L6.558622194366455,7.75937732421875C4.900252194366455,7.75937732421875,3.556042194366455,9.07602732421875,3.556042194366455,10.70071732421875ZM9.212132194366454,10.84585732421875L9.212132194366454,11.00323732421875C9.212132194366454,11.55439732421875,10.327912194366455,11.55439732421875,11.704582194366456,11.55439732421875L13.312732194366456,11.55439732421875C14.688742194366455,11.55439732421875,15.803942194366455,11.53418732421875,15.803942194366455,11.00323732421875L15.803942194366455,10.84585732421875C15.803942194366455,9.49735732421875,14.688742194366455,8.40422732421875,13.312732194366456,8.40422732421875L11.704582194366456,8.40422732421875C10.327912194366455,8.40422732421875,9.212132194366454,9.49735732421875,9.212132194366454,10.84585732421875Z" fill="url(#master_svg0_3_03457)" fill-opacity="1"/></g></g></g></svg>