<svg xmlns="http://www.w3.org/2000/svg" xmlns:xlink="http://www.w3.org/1999/xlink" fill="none" version="1.1" width="15" height="15" viewBox="0 0 15 15"><g><rect x="0" y="0" width="15" height="15" rx="4" fill="#34C759" fill-opacity="1"/><g><path d="M4.486000000000001,6.395L10.437,6.395L10.437,7.593999999999999L4.486000000000001,7.593999999999999L4.486000000000001,6.395ZM4.486000000000001,4.514L10.437,4.514L10.437,5.691L4.486000000000001,5.691L4.486000000000001,4.514ZM2.517,9.97L2.517,10.773L7.038,10.773L7.038,13.38L7.885,13.38L7.885,10.773L12.527,10.773L12.527,9.97L7.885,9.97L7.885,8.342L11.284,8.342L11.284,3.777L3.6719999999999997,3.777L3.6719999999999997,8.342L7.038,8.342L7.038,9.97L2.517,9.97Z" fill="#FFFFFF" fill-opacity="1"/></g></g></svg>